<?xml version="1.0" encoding="utf-8"?>
<svg version="1.1" id="Layer_1" xmlns="http://www.w3.org/2000/svg" x="0px" y="0px" width="100%" enable-background="new 0 0 1024 1024" viewBox="499.081 216.979 289.657 278.778">
  <ellipse style="fill:#D4B483; stroke: rgb(0, 0, 0);" cx="643.23" cy="353.572" rx="138.029" ry="131.23"/>
  <g transform="matrix(1, 0, 0, 1, 394.014343, -72.755379)">
    <path fill="#000000" opacity="1.000000" stroke="none" d="M 249.748 509.027 C 255.642 507.468 261.356 506.066 266.637 503.638 C 270.391 501.913 273.867 499.871 276.361 496.74 C 278.138 494.51 279.431 492.157 278.027 489.469 C 276.386 486.328 273.236 484.992 269.484 484.772 C 261.411 484.296 254.08 486.769 246.835 489.427 C 233.507 494.315 221.611 501.332 209.972 508.737 C 205.482 511.595 200.914 514.365 196.265 517.018 C 189.683 520.773 182.595 522.556 174.756 520.618 C 165.396 518.303 158.611 510.442 158.609 501.864 C 158.599 452.461 158.596 403.059 158.609 353.657 C 158.612 342.791 169.331 332.562 181.676 331.865 C 201.912 330.725 222.177 331.527 242.428 331.427 C 254.466 331.368 266.509 331.658 278.548 331.855 C 283.288 331.933 287.188 333.844 290.476 336.707 C 301.891 346.649 313.248 356.642 324.655 366.591 C 327.506 369.077 330.457 371.475 333.374 373.904 C 337.618 377.438 339.766 381.718 339.761 386.913 C 339.722 419.567 339.54 452.223 339.829 484.876 C 339.959 499.563 329.219 513.687 312.098 519.107 C 307.756 520.481 303.319 521.224 298.652 521.174 C 287.947 521.058 277.232 521.346 266.534 521.064 C 252.398 520.691 238.375 519.4 224.933 515.108 C 224.224 514.882 223.425 514.838 222.79 513.587 C 231.924 512.565 240.81 511.176 249.748 509.027 M 285.979 392.741 C 276.078 388.584 271.327 381.485 271.102 372.022 C 270.91 363.945 271.064 355.862 271.06 347.783 C 271.058 344.303 271.052 344.286 267.108 344.288 C 239.67 344.294 212.232 344.302 184.794 344.321 C 177.518 344.327 172.769 348.488 172.767 354.868 C 172.756 379.781 172.763 404.694 172.765 429.606 C 172.767 453.173 172.758 476.74 172.784 500.306 C 172.79 506.228 178.87 510.115 184.688 507.621 C 188.666 505.916 192.205 503.42 195.726 501.401 C 195.633 500.048 194.92 499.439 194.433 498.728 C 189.669 491.781 188.671 484.174 189.919 476.351 C 191.888 464.013 200.288 455.526 211.841 449.081 C 226.099 441.124 241.74 436.012 257.836 431.877 C 263.91 430.316 270.075 429.031 276.7 427.504 C 274.79 426.831 273.392 426.331 271.988 425.845 C 267.235 424.202 264.951 420.706 266.202 416.978 C 267.397 413.417 271.021 411.846 276.188 412.873 C 284.736 414.572 293.269 416.333 301.777 418.181 C 308.262 419.589 310.5 423.463 307.756 428.809 C 304.178 435.783 300.382 442.672 296.566 449.548 C 294.649 453.003 290.195 454.462 286.423 453.087 C 282.64 451.709 281.071 448.045 282.512 444.15 C 283.002 442.825 284.116 441.658 283.956 440.168 C 283.722 440.06 283.54 439.898 283.393 439.92 C 281.426 440.208 279.451 440.47 277.503 440.837 C 258.061 444.502 239.23 449.572 222.574 459.564 C 214.652 464.318 207.86 469.838 206.328 478.785 C 205.512 483.545 206.512 488.024 208.757 492.387 C 209.348 492.184 209.633 492.123 209.874 491.997 C 211.024 491.395 212.187 490.809 213.301 490.157 C 226.067 482.69 239.993 477.484 254.625 473.623 C 263.849 471.189 273.043 470.072 282.37 473.267 C 291.393 476.357 297.117 483.666 296.657 492.073 C 296.365 497.424 293.434 501.835 289.578 505.828 C 288.819 506.613 287.812 507.276 287.376 508.598 C 293.273 508.509 298.885 509.017 304.479 508.114 C 315.393 506.353 325.54 496.232 325.555 486.814 C 325.603 456.935 325.548 427.056 325.619 397.178 C 325.625 394.932 324.781 394.285 322.307 394.315 C 313.704 394.421 305.098 394.304 296.495 394.376 C 293.004 394.405 289.665 393.913 285.979 392.741 M 285.674 372.653 C 286.716 378.318 290.718 381.36 297.151 381.366 C 303.641 381.372 310.131 381.388 316.62 381.352 C 317.58 381.346 318.741 381.738 319.698 380.395 C 308.174 370.912 297.066 360.987 285.55 351.285 C 285.425 358.366 284.854 365.3 285.674 372.653 Z" style=""/>
    <path fill="#000000" opacity="1.000000" stroke="none" d="M 204.07 369.136 C 204.784 363.86 204.809 364.152 210.55 363.764 C 222.597 362.95 234.615 363.964 246.644 363.826 C 247.496 363.816 248.348 363.887 249.429 363.929 C 249.429 366.658 249.429 369.291 249.429 372.26 C 245.25 372.26 241.113 372.26 236.586 372.26 C 237.612 374.152 238.419 375.643 239.228 377.132 C 239.752 378.097 240.764 377.962 241.712 377.993 C 244.261 378.077 246.834 377.744 249.62 378.23 C 249.62 380.479 249.611 382.643 249.624 384.808 C 249.632 386.082 248.677 386.485 247.543 386.295 C 241.939 385.359 239.238 387.319 237.369 392.172 C 235.238 397.703 229.369 399.99 223.058 401.052 C 222.524 401.142 221.89 400.926 221.232 401.747 C 228.847 408.662 236.518 415.627 244.769 423.119 C 241.561 423.299 239.067 423.312 236.615 423.603 C 231.355 424.226 227.495 422.743 223.941 419.056 C 218.387 413.294 212.102 408.078 206.125 402.633 C 204.239 400.915 203.23 395.495 204.362 393.435 C 204.923 392.412 205.946 392.683 206.845 392.638 C 211.22 392.416 215.614 392.997 219.985 392.2 C 223.428 391.571 225.547 389.841 226.682 387.033 C 225.826 385.996 224.674 386.353 223.703 386.35 C 218.064 386.33 212.423 386.324 206.786 386.431 C 204.7 386.47 203.94 385.862 203.948 383.97 C 203.971 378.029 203.897 378.033 210.514 378.022 C 214.719 378.015 218.925 378.008 223.131 377.965 C 224.044 377.956 225.055 378.237 225.83 377.532 C 225.001 374.583 221.61 372.401 217.437 372.287 C 214.095 372.196 210.741 372.174 207.404 372.32 C 204.864 372.431 203.534 371.796 204.07 369.136 Z" style=""/>
  </g>
</svg>
